<?xml version="1.0" standalone="no"?>
<!DOCTYPE svg PUBLIC "-//W3C//DTD SVG 20010904//EN"
 "http://www.w3.org/TR/2001/REC-SVG-20010904/DTD/svg10.dtd">
<svg version="1.0" xmlns="http://www.w3.org/2000/svg"
 width="700.000000pt" height="700.000000pt" viewBox="0 0 700.000000 700.000000"
 preserveAspectRatio="xMidYMid meet">
<metadata>
Created by potrace 1.11, written by Peter Selinger 2001-2013
</metadata>
<g transform="translate(0.000000,700.000000) scale(0.100000,-0.100000)"
fill="#000000" stroke="none">
<path d="M3040 6993 c-339 -33 -562 -84 -830 -190 -232 -91 -515 -256 -720
-419 -117 -93 -361 -339 -450 -454 -314 -406 -500 -842 -578 -1353 -27 -175
-23 -605 6 -792 95 -602 363 -1134 787 -1560 151 -151 251 -234 425 -350 138
-92 255 -158 403 -225 53 -25 97 -50 97 -56 0 -6 -54 -264 -120 -574 -66 -310
-120 -583 -120 -606 0 -55 44 -109 98 -123 21 -5 523 -73 1117 -152 l1080
-142 38 18 c21 10 46 29 55 42 8 14 80 264 158 555 79 292 145 532 147 535 3
2 159 -10 348 -26 740 -65 739 -65 810 -47 114 30 198 100 248 206 l26 55 3
757 3 757 52 10 c29 6 92 17 140 25 137 23 214 74 269 179 19 35 23 58 23 132
0 106 28 45 -287 616 l-225 406 -7 259 c-11 396 -41 599 -131 869 -75 229
-174 423 -312 614 -90 126 -340 377 -475 477 -427 317 -978 507 -1603 554
-130 9 -394 11 -475 3z m400 -273 c505 -32 940 -153 1300 -361 438 -255 750
-631 903 -1089 77 -231 107 -414 114 -697 l5 -213 -161 0 c-119 0 -169 -4
-189 -14 -88 -45 -103 -153 -32 -221 l31 -30 196 -5 197 -5 243 -440 c133
-242 243 -445 243 -451 0 -24 -31 -33 -210 -64 -192 -33 -229 -46 -264 -93
-21 -28 -21 -33 -24 -840 l-3 -811 -21 -23 c-17 -19 -32 -23 -78 -23 -53 0
-782 59 -1000 81 -207 21 -247 11 -280 -64 -10 -23 -80 -271 -155 -552 -76
-280 -138 -511 -140 -513 -2 -3 -423 52 -1408 184 -225 29 -419 54 -432 54
-13 0 -26 4 -30 9 -6 10 194 970 204 983 4 4 225 -35 491 -88 481 -94 485 -95
527 -79 109 42 112 206 5 248 -20 8 -92 25 -159 38 l-123 23 0 181 0 180 153
153 153 153 110 -12 c128 -14 333 -7 450 16 388 74 603 296 675 695 18 98 18
398 0 515 -24 164 -46 185 -219 209 -127 18 -361 21 -467 6 -411 -59 -641
-266 -731 -659 -20 -87 -30 -402 -15 -501 l10 -75 -59 -60 -60 -60 0 635 0
635 193 193 193 193 90 -11 c134 -17 410 -14 539 5 525 79 808 387 865 940 23
217 -6 590 -51 664 -26 43 -61 58 -182 76 -260 38 -530 29 -746 -26 -387 -97
-614 -339 -702 -746 -27 -127 -37 -447 -19 -601 l12 -105 -96 -96 -96 -96 0
474 c0 414 -2 477 -16 507 -44 92 -181 99 -234 11 -19 -31 -20 -56 -20 -812
l0 -780 -61 61 -60 61 9 139 c42 597 -163 955 -612 1069 -187 47 -418 55 -632
20 -146 -23 -170 -51 -195 -220 -17 -113 -17 -385 0 -490 30 -185 104 -351
204 -461 186 -203 475 -288 886 -262 l145 9 158 -158 158 -158 0 -677 c0 -373
-3 -678 -6 -678 -26 0 -539 105 -574 117 -82 29 -324 149 -420 207 -227 139
-466 346 -631 548 -308 377 -489 798 -561 1303 -16 116 -16 493 0 610 88 627
364 1159 812 1562 439 396 972 619 1565 656 110 7 177 6 335 -3z m1300 -1249
c43 -6 45 -8 52 -46 4 -22 7 -64 7 -92 l1 -53 -57 0 c-78 0 -240 -25 -323 -50
-229 -68 -377 -188 -478 -385 -23 -45 -67 -96 -172 -200 l-142 -140 5 155 c15
465 179 705 539 790 154 36 396 45 568 21z m-2886 -933 c3 -13 8 -45 11 -73 9
-70 61 -221 95 -277 25 -41 28 -51 19 -77 -21 -60 1 -93 190 -285 l176 -178
-110 5 c-430 22 -605 224 -605 697 0 85 3 165 6 177 7 26 23 30 131 32 78 1
83 0 87 -21z m686 -674 c0 -14 -3 -14 -15 -4 -8 7 -15 14 -15 16 0 2 7 4 15 4
8 0 15 -7 15 -16z m1880 -372 l45 -7 3 -71 3 -71 -73 -7 c-113 -10 -234 -43
-327 -87 -80 -39 -96 -53 -297 -258 l-213 -216 -1 60 c0 33 7 103 15 156 46
311 190 451 511 498 72 10 272 12 334 3z"/>
<path d="M3882 1490 c-84 -52 -79 -176 10 -230 86 -53 198 12 198 115 0 106
-116 171 -208 115z"/>
</g>
</svg>
